# xmcd CD database file
#
# Track frame offsets:
#	150
#	11021
#	25121
#
# Disc length: 492 seconds
#
# Revision: 0
# Processed by: cddbd v1.5.1PL0 Copyright (c) Steve Scherf et al.
# Submitted via: CDex 1.51
#
DISCID=1701ea03
DTITLE=SORROW - Buddy
DYEAR=2004
DGENRE=Rock and Roll
TTITLE0=MISERY
TTITLE1=Buddy
TTITLE2=Dare John
EXTD=YEAR: 2004
EXTT0=
EXTT1=
EXTT2=
PLAYORDER=
